<svg width="24" height="24" viewBox="0 0 24 24" fill="none" xmlns="http://www.w3.org/2000/svg">
<g clip-path="url(#clip0_250_881)">
<path d="M24.0002 11.2471C23.8555 8.9071 23.0293 6.66059 21.6233 4.7845C20.2174 2.90841 18.2932 1.48477 16.0879 0.68907C13.8826 -0.106627 11.4927 -0.239591 9.21271 0.306571C6.93277 0.852733 4.86249 2.05415 3.2571 3.76269C1.65171 5.47124 0.581393 7.61224 0.178094 9.92173C-0.225205 12.2312 0.0561486 14.6083 0.987468 16.7598C1.91879 18.9113 3.45936 20.7433 5.41926 22.0298C7.37916 23.3164 9.67271 24.0013 12.0172 24.0001H19.0002C20.3258 23.9988 21.5968 23.4715 22.5342 22.5341C23.4716 21.5968 23.9988 20.3258 24.0002 19.0001V11.2471ZM22.0002 19.0001C22.0002 19.7957 21.6841 20.5588 21.1215 21.1214C20.5589 21.684 19.7958 22.0001 19.0002 22.0001H12.0172C10.6061 21.9994 9.211 21.7014 7.92285 21.1254C6.6347 20.5494 5.48243 19.7083 4.54115 18.6571C3.59533 17.6063 2.88508 16.3655 2.45805 15.0179C2.03101 13.6702 1.89705 12.2468 2.06515 10.8431C2.33059 8.62902 3.32534 6.56626 4.89259 4.98C6.45985 3.39374 8.51045 2.37419 10.7212 2.08207C11.1524 2.02803 11.5865 2.00064 12.0212 2.00007C14.3516 1.99372 16.61 2.80798 18.4002 4.30008C19.4457 5.16902 20.3039 6.24123 20.9227 7.45171C21.5415 8.66218 21.9081 9.98572 22.0002 11.3421V19.0001Z" fill="#34312D"/>
<path d="M7.99976 9H11.9998C12.265 9 12.5193 8.89464 12.7069 8.7071C12.8944 8.51957 12.9998 8.26521 12.9998 8C12.9998 7.73478 12.8944 7.48043 12.7069 7.29289C12.5193 7.10536 12.265 7 11.9998 7H7.99976C7.73454 7 7.48019 7.10536 7.29265 7.29289C7.10511 7.48043 6.99976 7.73478 6.99976 8C6.99976 8.26521 7.10511 8.51957 7.29265 8.7071C7.48019 8.89464 7.73454 9 7.99976 9Z" fill="#34312D"/>
<path d="M15.9998 11H7.99976C7.73454 11 7.48019 11.1054 7.29265 11.2929C7.10511 11.4804 6.99976 11.7348 6.99976 12C6.99976 12.2652 7.10511 12.5196 7.29265 12.7071C7.48019 12.8947 7.73454 13 7.99976 13H15.9998C16.265 13 16.5193 12.8947 16.7069 12.7071C16.8944 12.5196 16.9998 12.2652 16.9998 12C16.9998 11.7348 16.8944 11.4804 16.7069 11.2929C16.5193 11.1054 16.265 11 15.9998 11Z" fill="#34312D"/>
<path d="M15.9998 15H7.99976C7.73454 15 7.48019 15.1054 7.29265 15.2929C7.10511 15.4804 6.99976 15.7348 6.99976 16C6.99976 16.2652 7.10511 16.5196 7.29265 16.7071C7.48019 16.8947 7.73454 17 7.99976 17H15.9998C16.265 17 16.5193 16.8947 16.7069 16.7071C16.8944 16.5196 16.9998 16.2652 16.9998 16C16.9998 15.7348 16.8944 15.4804 16.7069 15.2929C16.5193 15.1054 16.265 15 15.9998 15Z" fill="#34312D"/>
</g>
<defs>
<clipPath id="clip0_250_881">
<rect width="24" height="24" fill="white"/>
</clipPath>
</defs>
</svg>
