<svg width="77" height="36" viewBox="0 0 77 36" fill="none" xmlns="http://www.w3.org/2000/svg">
<path d="M14.7914 2.264C14.7914 1.832 14.4554 1.4 13.8314 1.4H8.98344C6.48744 2.696 3.94344 4.136 1.44744 5.48H1.54344C0.967437 5.624 0.871437 6.104 1.01544 6.536L2.79144 10.376C2.98344 10.76 3.51144 10.952 4.03944 10.856L5.19144 10.424H5.14344C5.81544 10.136 6.72744 9.752 7.49544 9.512V34.184C7.49544 34.568 7.78344 35 8.45544 35H13.8314C14.4554 35 14.7914 34.568 14.7914 34.184V2.264ZM41.4809 25.592V10.808C41.4809 4.28 36.2969 0.919998 31.1609 0.919998C25.9769 0.919998 20.8409 4.28 20.8409 10.808V25.592C20.8409 32.168 25.9769 35.48 31.1609 35.48C36.2969 35.48 41.4809 32.168 41.4809 25.592ZM34.0889 10.472V25.784C34.0889 27.848 32.6489 28.952 31.1609 28.952C29.7209 28.952 28.2329 27.848 28.2329 25.784V10.472C28.2329 8.408 29.6729 7.352 31.1609 7.352C32.6009 7.352 34.0889 8.408 34.0889 10.472ZM53.0216 15.704C57.1496 15.704 60.6056 12.344 60.6056 8.36C60.6056 4.232 57.1496 0.919998 53.0216 0.919998C48.8456 0.919998 45.3896 4.232 45.3896 8.36C45.3896 12.344 48.8456 15.704 53.0216 15.704ZM53.0216 6.104C54.0776 6.104 55.0376 7.112 55.0376 8.36C55.0376 9.56 54.0776 10.52 53.0216 10.52C51.9656 10.52 51.0056 9.56 51.0056 8.36C51.0056 7.112 51.9656 6.104 53.0216 6.104ZM68.0936 35.432C72.3656 35.432 75.7256 32.12 75.7256 27.944C75.7256 23.816 72.3656 20.504 68.0936 20.504C63.8216 20.504 60.4136 23.816 60.4136 27.944C60.4136 32.12 63.8216 35.432 68.0936 35.432ZM68.0936 25.784C69.1976 25.784 70.1576 26.744 70.1576 27.944C70.1576 29.144 69.1976 30.152 68.0936 30.152C66.9896 30.152 66.0776 29.144 66.0776 27.944C66.0776 26.744 66.9896 25.784 68.0936 25.784ZM50.5256 34.904C50.7176 34.904 51.2456 34.664 51.3416 34.568C59.4056 24.248 68.0456 13.064 76.1096 2.744C76.5416 2.168 76.1576 1.4 75.3416 1.4H70.3016C70.1096 1.4 69.5816 1.64 69.4856 1.736C61.4216 12.056 52.7816 23.24 44.7176 33.56C44.2856 34.184 44.6696 34.904 45.4856 34.904H50.5256Z" fill="#FF774C"/>
</svg>
