<svg width="24" height="24" viewBox="0 0 24 24" fill="none" xmlns="http://www.w3.org/2000/svg">
<g clip-path="url(#clip0_220_3153)">
<path d="M22.2 2.16316C21.6378 1.69308 20.9791 1.35255 20.2705 1.16572C19.5619 0.978895 18.8209 0.950365 18.1 1.08216L14.278 1.77616C13.3956 1.9382 12.5933 2.39218 12 3.06516C11.4052 2.39102 10.6006 1.93693 9.716 1.77616L5.9 1.08216C5.17916 0.950249 4.43813 0.978405 3.72938 1.16463C3.02062 1.35086 2.36147 1.6906 1.79857 2.15981C1.23567 2.62902 0.782786 3.21623 0.471982 3.87986C0.161178 4.5435 4.88125e-05 5.26734 0 6.00016L0 16.7932C5.74559e-05 17.964 0.410977 19.0976 1.16113 19.9965C1.91129 20.8954 2.95311 21.5026 4.105 21.7122L10.391 22.8552C11.455 23.0485 12.545 23.0485 13.609 22.8552L19.9 21.7122C21.051 21.5015 22.0916 20.8939 22.8408 19.9951C23.5899 19.0963 24.0002 17.9632 24 16.7932V6.00016C24.0005 5.2676 23.8394 4.54395 23.5283 3.88075C23.2171 3.21754 22.7636 2.63109 22.2 2.16316ZM11 20.9282C10.916 20.9162 10.832 20.9022 10.748 20.8872L4.463 19.7452C3.77176 19.6194 3.14659 19.255 2.69649 18.7155C2.24638 18.1761 1.99989 17.4957 2 16.7932V6.00016C2 5.20451 2.31607 4.44144 2.87868 3.87884C3.44129 3.31623 4.20435 3.00016 5 3.00016C5.18109 3.00059 5.36179 3.01698 5.54 3.04916L9.36 3.74916C9.81961 3.83326 10.2353 4.07563 10.5348 4.4342C10.8344 4.79277 10.999 5.24491 11 5.71216V20.9282ZM22 16.7932C22.0001 17.4957 21.7536 18.1761 21.3035 18.7155C20.8534 19.255 20.2282 19.6194 19.537 19.7452L13.252 20.8872C13.168 20.9022 13.084 20.9162 13 20.9282V5.71216C12.9999 5.24377 13.1643 4.79021 13.4643 4.43056C13.7644 4.07092 14.1812 3.828 14.642 3.74416L18.463 3.04416C18.8957 2.96543 19.3405 2.98281 19.7657 3.09507C20.191 3.20732 20.5863 3.41172 20.9238 3.69376C21.2613 3.97581 21.5326 4.32861 21.7186 4.72718C21.9046 5.12575 22.0007 5.56033 22 6.00016V16.7932Z" fill="#34312D"/>
</g>
<defs>
<clipPath id="clip0_220_3153">
<rect width="24" height="24" fill="white"/>
</clipPath>
</defs>
</svg>
