<svg width="241" height="92" viewBox="0 0 241 92" fill="none" xmlns="http://www.w3.org/2000/svg">
<path d="M23.6569 46V35.463L39.7344 26.2857L48.6283 31.7241L23.6569 46Z" fill="#FB9400"/>
<path d="M39.6007 0L73.0031 19.2959L58.1959 27.9101L39.6007 17.2285L14.8072 31.7004V60.9888L39.6007 75.8052L65.083 60.9888V49.618L41.6669 63.0562L28.2371 55.4757L78.8571 26.1873V69.2584L39.6007 92L0 69.2584V23.0861L39.6007 0Z" fill="#FB9400"/>
<path d="M110.615 27.3562C110.175 27.3562 109.87 27.6609 109.87 27.9317V31.4186C109.87 31.7572 110.175 31.9941 110.615 31.9941H113.933V34.5331C112.646 35.8873 110.92 36.7336 109.024 36.7336C105.3 36.7336 102.253 34.567 102.253 29.489C102.253 24.9188 105.3 22.2444 109.024 22.2444C110.886 22.2444 112.613 23.023 113.865 24.2756C114.068 24.5126 114.508 24.5464 114.779 24.3094L117.42 21.7027C117.657 21.4996 117.657 21.0257 117.487 20.7887C115.389 18.7236 112.274 17.3018 109.024 17.3018C102.423 17.3018 97.04 22.4475 97.04 29.489C97.04 37.2075 102.084 41.6762 108.516 41.6762C110.886 41.6762 112.782 41.0668 114.339 39.645C114.339 40.3559 114.373 40.1866 114.407 40.8637C114.407 41.2022 114.779 41.4392 115.152 41.4392H118.435C118.842 41.4392 119.112 41.1345 119.112 40.8298V27.9317C119.112 27.6609 118.842 27.3562 118.435 27.3562H110.615ZM135.309 27.7286C135.309 27.4239 135.072 27.1193 134.598 27.1193H123.291C122.851 27.1193 122.546 27.4239 122.546 27.7286V31.1478C122.546 31.4186 122.851 31.7233 123.291 31.7233H134.598C135.072 31.7233 135.309 31.4186 135.309 31.1478V27.7286ZM154.313 22.4814C154.719 22.4814 155.024 22.1767 155.024 21.872V18.2497C155.024 17.945 154.719 17.6403 154.313 17.6403H139.587C139.147 17.6403 138.876 17.945 138.876 18.2497V40.7621C138.876 41.033 139.147 41.3376 139.587 41.3376H154.584C155.024 41.3376 155.329 41.033 155.329 40.7621V37.0044C155.329 36.6997 155.024 36.3951 154.584 36.3951H144.055V31.8587H152.722C153.128 31.8587 153.399 31.554 153.399 31.2832V27.6271C153.399 27.3224 153.128 27.0177 152.722 27.0177H144.055V22.4814H154.313ZM170.39 40.9653V40.9314C170.457 41.1684 170.762 41.3376 171.033 41.3376H175.061C175.569 41.3376 175.84 40.9314 175.671 40.5252L166.801 17.6065C166.564 17.0987 165.718 17.0987 165.481 17.6065C162.603 25.0204 159.489 33.1113 156.611 40.5252C156.442 40.9314 156.679 41.3376 157.254 41.3376H161.249C161.554 41.3376 161.859 41.1684 161.926 40.9314V40.9653L162.773 38.6294H169.476L170.39 40.9653ZM165.312 31.0462C165.65 30.0306 165.921 29.0489 166.158 27.7963C166.361 28.9812 166.632 29.9291 166.97 31.0462L168.121 34.567H164.127L165.312 31.0462ZM184.956 41.6762C188.849 41.6762 192.539 39.171 192.539 34.567C192.539 31.7572 191.118 29.3197 188.511 28.1349C186.818 27.3562 185.126 27.3562 184.956 27.3562C183.636 27.3562 182.451 26.4083 182.451 24.9188C182.451 23.2261 183.568 22.4136 184.956 22.4136C186.209 22.4136 187.326 23.1246 187.394 24.5126C187.394 24.8172 187.732 25.0881 188.105 25.0881H191.761C192.167 25.0881 192.472 24.8172 192.472 24.5126C192.404 20.4163 189.12 17.6065 184.956 17.6065C180.995 17.6065 177.339 20.3824 177.339 24.9188C177.339 27.7625 178.795 30.0645 181.334 31.2832C183.061 32.0618 184.753 32.0618 184.956 32.0618C186.073 32.1634 187.461 33.1113 187.461 34.567C187.461 35.955 186.277 36.8013 184.956 36.8013C183.636 36.8013 182.519 36.0904 182.451 34.6347C182.451 34.2962 182.079 34.093 181.74 34.093H178.05C177.61 34.093 177.339 34.2962 177.339 34.6347C177.407 39.1372 180.725 41.5746 184.956 41.6762ZM210.853 17.9112C210.785 17.9112 210.481 18.0127 210.311 18.1143L205.267 25.3589C203.541 22.8876 201.882 20.5856 200.189 18.1143C200.054 17.9789 199.715 17.9112 199.614 17.9112H195.111C194.468 17.9112 194.197 18.419 194.536 18.859H194.502L199.851 26.4422L202.694 30.4707V40.7621C202.694 41.033 202.965 41.3376 203.405 41.3376H207.095C207.502 41.3376 207.806 41.033 207.806 40.7621V30.4707L215.965 18.859H215.931C216.303 18.419 215.999 17.9112 215.389 17.9112H210.853Z" fill="black"/>
<path d="M107.905 61.4382V59.5662H100.433V70.7662H107.905V68.8942H102.305V66.0942H106.961V64.2382H102.305V61.4382H107.905ZM119.167 59.5662H117.311V67.5342L111.727 59.5662H109.839V70.7662H111.711V62.7982L117.279 70.7662H119.167V59.5662ZM126.802 64.3982V66.0462H129.778V67.7902C129.09 68.5742 128.098 69.0542 126.978 69.0542C124.914 69.0542 123.25 67.9022 123.25 65.1662C123.25 62.7182 124.914 61.2782 126.978 61.2782C128.002 61.2782 128.946 61.6942 129.618 62.3662L130.93 61.0542C129.922 60.0302 128.53 59.4062 126.978 59.4062C123.89 59.4062 121.378 61.8382 121.378 65.1662C121.378 68.8302 123.73 70.9262 126.738 70.9262C128.066 70.9262 129.01 70.6062 129.922 69.7582L130.018 70.7822H131.65V64.3982H126.802ZM135.961 68.8942V59.5662H134.089V70.7662H140.105V68.8942H135.961ZM142.153 70.7662H144.025V59.5662H142.153V70.7662ZM149.693 70.9262C151.501 70.9262 153.181 69.7742 153.181 67.6302C153.181 66.3022 152.541 65.1662 151.357 64.6222C150.557 64.2542 149.773 64.2542 149.693 64.2542C148.861 64.2542 148.061 63.7582 148.061 62.8302C148.061 61.7902 148.813 61.2782 149.693 61.2782C150.541 61.2782 151.261 61.6942 151.293 62.6222H153.149C153.117 60.7182 151.629 59.4062 149.693 59.4062C147.885 59.4062 146.189 60.7022 146.189 62.8302C146.189 64.1582 146.845 65.1502 148.013 65.6942C148.829 66.0622 149.597 66.0622 149.693 66.0622C150.445 66.0942 151.325 66.6862 151.325 67.6302C151.325 68.5102 150.557 69.0542 149.693 69.0542C148.861 69.0542 148.093 68.5902 148.061 67.6622H146.189C146.221 69.7582 147.757 70.8782 149.693 70.9262ZM161.836 59.5662V64.2062H157.18V59.5662H155.308V70.7662H157.18V66.0942H161.836V70.7662H163.708V59.5662H161.836Z" fill="black"/>
</svg>
